<svg xmlns="http://www.w3.org/2000/svg" xmlns:xlink="http://www.w3.org/1999/xlink" version="1.1" x="0px" y="0px" viewBox="0 0 90 90" enable-background="new 0 0 90 90" xml:space="preserve"><path d="M54.497,23.202h-2.718V10.534c0-0.356,0.007-0.702,0.014-1.033c0.031-1.657,0.057-2.964-0.717-3.753  c-0.373-0.38-0.877-0.573-1.499-0.573h-2.734c-0.099-0.202-0.239-0.331-0.399-0.331h-2.887c-0.159,0-0.302,0.129-0.4,0.331h-2.732  c-0.621,0-1.125,0.193-1.499,0.573c-0.773,0.79-0.749,2.097-0.718,3.753c0.008,0.332,0.014,0.677,0.014,1.033v12.668h-2.717  c-4.496,0-8.141,3.645-8.141,8.14v44.264c0,3.797,2.604,6.979,6.121,7.877c-0.009,0.071-0.017,0.145-0.017,0.221  c0,0.509,0.229,0.923,0.51,0.923h4.917c0.273,0,0.494-0.392,0.508-0.879h11.364c0,0.508,0.228,0.921,0.509,0.921h4.917  c0.281,0,0.509-0.413,0.509-0.921c0-0.107-0.011-0.209-0.029-0.304c3.438-0.952,5.965-4.097,5.965-7.838V31.342  C62.637,26.847,58.992,23.202,54.497,23.202z M40.049,6.851c0.024-0.025,0.099-0.102,0.375-0.102h2.967  c0.052,0.031,0.107,0.053,0.166,0.053h2.887c0.059,0,0.112-0.021,0.165-0.053h2.969c0.275,0,0.35,0.076,0.374,0.102  c0.312,0.317,0.289,1.54,0.267,2.619c-0.006,0.342-0.014,0.698-0.014,1.064v12.668H39.796V10.534c0-0.366-0.007-0.722-0.014-1.064  C39.761,8.39,39.737,7.167,40.049,6.851z M35.138,72.612l-1.643-2.479l8.48-5.624l1.643,2.479L35.138,72.612z M44.558,58.411  l-8.329-1.994l0.651-2.722l8.328,1.994L44.558,58.411z M48.156,54.367l-1.122-5.484l4.216-0.862l-7.632-9.129l3.258-2.724  l7.985,9.552l-2.473,2.068l4.531-0.927l1.121,5.484L48.156,54.367z"></path></svg>