<svg xmlns="http://www.w3.org/2000/svg" xmlns:xlink="http://www.w3.org/1999/xlink" xmlns:sketch="http://www.bohemiancoding.com/sketch/ns" viewBox="0 0 45 60" version="1.1" x="0px" y="0px"><title>27 - Troller (Solid)</title><desc>Created with Sketch.</desc><g stroke="none" stroke-width="1" fill="none" fill-rule="evenodd" sketch:type="MSPage"><g sketch:type="MSLayerGroup" fill="#000000"><path d="M40,29 L39,29 L39,16.858 C39,14.18 36.82,12 34.142,12 L25,12 L25,6 L26,6 C27.654,6 29,4.654 29,3 C29,1.346 27.654,0 26,0 L14,0 C12.346,0 11,1.346 11,3 C11,4.654 12.346,6 14,6 L15,6 L15,12 L4.858,12 C2.179,12 0,14.179 0,16.858 L0,52.142 C0,54.162 1.241,55.896 3,56.627 L3,57.315 C3,58.795 4.205,60 5.685,60 L11.315,60 C12.795,60 14,58.795 14,57.315 L14,57 L25,57 L25,57.315 C25,58.795 26.205,60 27.685,60 L33.315,60 C34.795,60 36,58.795 36,57.315 L36,56.627 C37.759,55.896 39,54.163 39,52.142 L39,39 L40,39 C42.757,39 45,36.757 45,34 C45,31.243 42.757,29 40,29 L40,29 Z M17,2 L19,2 L19,4 L17,4 L17,2 Z M21,2 L23,2 L23,4 L21,4 L21,2 Z M27,3 C27,3.551 26.551,4 26,4 L25,4 L25,2 L26,2 C26.551,2 27,2.449 27,3 L27,3 Z M13,3 C13,2.449 13.449,2 14,2 L15,2 L15,4 L14,4 C13.449,4 13,3.551 13,3 L13,3 Z M17,6 L23,6 L23,12 L17,12 L17,6 Z M7,18 L32,18 C32.552,18 33,18.448 33,19 C33,19.552 32.552,20 32,20 L31.596,20 C31.846,20.587 32,21.263 32,22 C32,24.243 30.682,26 29,26 C27.318,26 26,24.243 26,22 C26,21.263 26.153,20.587 26.404,20 L7,20 C6.448,20 6,19.552 6,19 C6,18.448 6.448,18 7,18 L7,18 Z M24.079,39.69 L34.31,44.007 L31.173,51.442 L20.941,47.126 L24.079,39.69 L24.079,39.69 Z M40,37 L39,37 L39,31 L40,31 C41.654,31 43,32.346 43,34 C43,35.654 41.654,37 40,37 L40,37 Z" sketch:type="MSShapeGroup"></path><path d="M25.144,42.31 L23.561,46.06 L30.107,48.822 L31.69,45.072 L25.144,42.31" sketch:type="MSShapeGroup"></path></g></g></svg>