<svg xmlns="http://www.w3.org/2000/svg" xmlns:xlink="http://www.w3.org/1999/xlink" version="1.1" x="0px" y="0px" viewBox="0 0 100 100" enable-background="new 0 0 100 100" xml:space="preserve"><path stroke="#000000" stroke-miterlimit="10" d="M61.5,82.5c0,1.657-1.306,3-2.917,3H29.417c-1.61,0-2.917-1.343-2.917-3v-45  c0-1.657,1.306-3,2.917-3h29.167c1.611,0,2.917,1.343,2.917,3V82.5z"></path><path stroke="#000000" stroke-miterlimit="10" d="M74.5,83.5c0,1.657-1.343,3-3,3h-5c-1.657,0-3-1.343-3-3v-50c0-1.657,1.343-3,3-3  h5c1.657,0,3,1.343,3,3V83.5z"></path><path d="M72,27.75c0,0-34.125-0.625-38.25,0c-3.445,0.522-4.707,4.086-5.03,5.25h32.644C61.859,27.642,72,27.75,72,27.75z"></path><ellipse stroke="#000000" stroke-miterlimit="10" cx="54.688" cy="9.563" rx="8.813" ry="0.813"></ellipse><rect x="46.5" y="13.5" fill="none" stroke="#000000" stroke-miterlimit="10" width="2" height="14"></rect><rect x="60.5" y="13.5" fill="none" stroke="#000000" stroke-miterlimit="10" width="2" height="14"></rect><rect x="46.5" y="10.5" stroke="#000000" stroke-miterlimit="10" width="2" height="2"></rect><rect x="60.5" y="10.5" stroke="#000000" stroke-miterlimit="10" width="2" height="2"></rect><ellipse stroke="#000000" stroke-miterlimit="10" cx="34.938" cy="89.563" rx="2.063" ry="2.313"></ellipse><ellipse stroke="#000000" stroke-miterlimit="10" cx="41.938" cy="86.563" rx="2.063" ry="2.313"></ellipse><ellipse stroke="#000000" stroke-miterlimit="10" cx="71.938" cy="87.563" rx="2.063" ry="2.313"></ellipse><ellipse stroke="#000000" stroke-miterlimit="10" cx="66.938" cy="90.563" rx="2.063" ry="2.313"></ellipse><polygon fill="none" stroke="#000000" stroke-miterlimit="10" points="31.209,85.07 32.637,88.145 35.158,86.607 34.064,84.125 "></polygon><polygon fill="none" stroke="#000000" stroke-miterlimit="10" points="63.768,84.8 64.669,90.793 67.463,88.091 66.795,83.257 "></polygon></svg>