<svg xmlns="http://www.w3.org/2000/svg" xmlns:xlink="http://www.w3.org/1999/xlink" version="1.1" x="0px" y="0px" viewBox="0 0 100 100" enable-background="new 0 0 100 100" xml:space="preserve"><g><circle fill="none" cx="38.976" cy="91.742" r="0.897"></circle><circle fill="none" cx="62.161" cy="91.742" r="0.897"></circle><path d="M47.317,8.178h5.365c1.908,0,3.461,1.553,3.461,3.461h3.178C59.321,7.978,56.343,5,52.683,5h-5.365   c-3.661,0-6.639,2.978-6.639,6.639h3.178C43.856,9.73,45.409,8.178,47.317,8.178z"></path><rect x="56.144" y="12.698" width="3.178" height="13.606"></rect><rect x="40.679" y="12.698" width="3.178" height="13.606"></rect><path d="M40.212,88.728l-0.235,0.441l0.711,1.196c0.305,0.377,0.486,0.856,0.486,1.378c0,1.214-0.983,2.197-2.198,2.197   c-0.805,0-1.507-0.433-1.89-1.079l-1.352-1.45c-0.011,0.109-0.018,0.219-0.018,0.332c0,1.799,1.46,3.257,3.259,3.257   c1.8,0,3.259-1.458,3.259-3.257C42.234,90.38,41.398,89.215,40.212,88.728z"></path><path d="M37.676,92.803c0.013,0.016,0.027,0.03,0.042,0.043c0.03,0.033,0.061,0.064,0.094,0.093   c0.017,0.016,0.034,0.03,0.051,0.043c0.033,0.026,0.067,0.053,0.102,0.075c0.018,0.013,0.034,0.025,0.052,0.038   c0.04,0.025,0.083,0.049,0.124,0.071c0.013,0.007,0.025,0.015,0.037,0.021c0.055,0.029,0.112,0.052,0.169,0.074   c0.015,0.005,0.028,0.009,0.042,0.014c0.045,0.015,0.09,0.028,0.134,0.041c0.021,0.004,0.041,0.008,0.063,0.013   c0.039,0.008,0.078,0.016,0.119,0.021c0.022,0.003,0.044,0.006,0.065,0.009c0.043,0.003,0.084,0.005,0.125,0.006   c0.021,0.001,0.039,0.001,0.058,0.001c0.073,0,0.146-0.006,0.22-0.016c0.017-0.003,0.033-0.006,0.049-0.008   c0.068-0.011,0.135-0.027,0.201-0.046c0.008-0.002,0.018-0.004,0.026-0.007c0.072-0.023,0.144-0.052,0.213-0.085   c0.016-0.007,0.032-0.017,0.049-0.025c0.069-0.035,0.139-0.074,0.205-0.122c0.765-0.54,0.946-1.597,0.406-2.361l-0.898-1.514   l0.635-1.196H34.58l0.727,2.255l2.247,2.41C37.592,92.706,37.632,92.755,37.676,92.803z M38.976,90.845   c0.495,0,0.896,0.402,0.896,0.898c0,0.495-0.401,0.896-0.896,0.896s-0.896-0.401-0.896-0.896   C38.08,91.247,38.48,90.845,38.976,90.845z"></path><path d="M63.397,88.728l-0.235,0.441l0.711,1.196c0.303,0.377,0.486,0.856,0.486,1.378c0,1.214-0.985,2.197-2.198,2.197   c-0.806,0-1.508-0.433-1.89-1.079l-1.353-1.45c-0.011,0.109-0.017,0.219-0.017,0.332c0,1.799,1.459,3.257,3.259,3.257   s3.259-1.458,3.259-3.257C65.42,90.38,64.584,89.215,63.397,88.728z"></path><path d="M60.859,92.803c0.015,0.016,0.028,0.03,0.043,0.043c0.029,0.033,0.062,0.064,0.095,0.093   c0.017,0.016,0.033,0.03,0.051,0.043c0.033,0.026,0.066,0.053,0.101,0.075c0.018,0.013,0.035,0.025,0.053,0.038   c0.04,0.025,0.082,0.049,0.124,0.071c0.013,0.007,0.023,0.015,0.036,0.021c0.056,0.029,0.111,0.052,0.17,0.074   c0.015,0.005,0.027,0.009,0.042,0.014c0.044,0.015,0.089,0.028,0.134,0.041c0.021,0.004,0.041,0.008,0.062,0.013   c0.041,0.008,0.08,0.016,0.12,0.021c0.022,0.003,0.044,0.006,0.066,0.009c0.041,0.003,0.084,0.005,0.125,0.006   c0.019,0.001,0.038,0.001,0.058,0.001c0.072,0,0.146-0.006,0.219-0.016c0.017-0.003,0.033-0.006,0.05-0.008   c0.067-0.011,0.134-0.027,0.2-0.046c0.009-0.002,0.018-0.004,0.027-0.007c0.072-0.023,0.143-0.052,0.213-0.085   c0.015-0.007,0.032-0.017,0.048-0.025c0.07-0.035,0.14-0.074,0.206-0.122c0.765-0.54,0.945-1.597,0.405-2.361l-0.898-1.514   l0.636-1.196h-5.478l0.727,2.255l2.245,2.41C60.775,92.706,60.817,92.755,60.859,92.803z M62.161,90.845   c0.495,0,0.896,0.402,0.896,0.898c0,0.495-0.401,0.896-0.896,0.896c-0.496,0-0.897-0.401-0.897-0.896   C61.264,91.247,61.665,90.845,62.161,90.845z"></path><circle cx="58.28" cy="49.308" r="2.991"></circle><path d="M66.155,63.517l-6.82-1.951l-4.639,5.368l6.82,1.951L66.155,63.517z M57.971,65.957c-0.403-1.355,0.367-2.782,1.725-3.186   c1.354-0.404,2.779,0.368,3.184,1.723c0.404,1.356-0.366,2.781-1.722,3.185C59.801,68.083,58.375,67.313,57.971,65.957z"></path><line fill="#000000" stroke="#231F20" stroke-width="0" stroke-linecap="round" stroke-linejoin="round" x1="48.521" y1="43.628" x2="48.521" y2="43.627"></line><line fill="#000000" stroke="#231F20" stroke-width="0" stroke-linecap="round" stroke-linejoin="round" x1="48.521" y1="43.624" x2="48.518" y2="43.597"></line><path d="M68.656,27.248H31.344c-2.789,0-5.051,2.261-5.051,5.05v49.938c0,2.789,2.262,5.049,5.051,5.049h37.312   c2.789,0,5.051-2.26,5.051-5.049V32.298C73.707,29.509,71.445,27.248,68.656,27.248z M48.312,42.48l0.084,0.34l-4.383-2.019   l-1.171,0.183l5.675,2.615l0.005,0.025v0.003l-1.709,0.267l-0.051-0.023l-4.588-2.121l0.434,2.77l0.004,0.03l-0.616,0.096   l-0.636-4.063l6.527-1.02l0.096,0.616l-0.03,0.005l-3.442,0.539L48.312,42.48l0.033,0.016 M46.982,33.776l0.179,1.141l-0.028,0.026   l-3.073,2.823l3.431-0.537l0.031-0.004l0.096,0.615l-6.527,1.02l-0.634-4.063l0.615-0.096l0.005,0.03l0.435,2.779l3.734-3.431   l0.041-0.037l0.527-0.083l-4.25,3.895l0.047,0.295l0.729-0.115L46.982,33.776L46.982,33.776 M33.745,45.936l-0.177-1.131   l0.028-0.026l3.084-2.833l-3.442,0.538l-0.03,0.004l-0.097-0.617l6.525-1.02l0.634,4.064l-0.614,0.096l-0.005-0.03l-0.433-2.77   l-3.723,3.419l-0.042,0.039l-0.58,0.09l4.285-3.928l-0.042-0.267l-0.768,0.12l-4.607,4.223L33.745,45.936 M38.959,67.5   l-1.375,3.843l-4.386-1.57l1.376-3.842L38.959,67.5z M32.206,36.086l1.696-0.265l0.049,0.022l4.605,2.128l-0.436-2.779l-0.005-0.03   l0.615-0.096l0.636,4.063l-6.525,1.02l-0.097-0.615l0.031-0.004l3.431-0.537l-3.789-1.75l-0.033-0.016l-0.056-0.357l4.421,2.039   l1.17-0.183l-5.713-2.633 M35.621,76.829l-4.387-1.57l1.376-3.843l4.387,1.57L35.621,76.829z M45.255,80.277l-7.992-2.86   l1.376-3.843l7.991,2.861L45.255,80.277z M47.218,74.792l-7.992-2.861l1.376-3.843l7.991,2.86L47.218,74.792z M52.713,42.2   l14.267,4.688l-3.122,9.5l-0.009,0.03l-14.268-4.688L52.713,42.2z M54.663,72.177l-2.866-9.613l14.391-4.291l2.856,9.583l0.01,0.03   L54.663,72.177z"></path><line fill="#000000" stroke="#FFFFFF" stroke-width="0" stroke-linecap="round" stroke-linejoin="round" x1="45.285" y1="80.288" x2="45.274" y2="80.318"></line></g></svg>